# xmcd
#
# Track frame offsets:
#	150
#	10345
#	26297
#	36610
#	47875
#	59615
#	77521
#	89967
#	103897
#	118480
#	129697
#	141041
#	156811
#
# Disc length: 2220 seconds
#
# Revision: 1
# Processed by: cddbd v1.5.2PL0 Copyright (c) Steve Scherf et al.
# Submitted via: audiograbber 1.83.01
#
DISCID=bf08aa0d
DTITLE=New South - Satisfied
DYEAR=2018
DGENRE=Gospel
TTITLE0=Oh What A Happy Day
TTITLE1=I  Would Crawl All The Way To The River
TTITLE2=Would They Love Him Down In Shreveport
TTITLE3=Getcha To The Other Side
TTITLE4=Swing Down Chariot
TTITLE5=A Bible And A Bus Ticket Home
TTITLE6=Will The Lord Be With Me
TTITLE7=Delivered From The Hands Of Pharaoh
TTITLE8=He Touched Me
TTITLE9=We'll Soon Be Done With Troubles And Trials
TTITLE10=Satisfied
TTITLE11=Because He Lives
TTITLE12=Gone At Last
EXTD=
EXTT0=
EXTT1=
EXTT2=
EXTT3=
EXTT4=
EXTT5=
EXTT6=
EXTT7=
EXTT8=
EXTT9=
EXTT10=
EXTT11=
EXTT12=
PLAYORDER=
